<svg xmlns="http://www.w3.org/2000/svg" width="91.972" height="91.972" viewBox="0 0 91.972 91.972"><defs><style>.a,.b{fill:#6755d8;}.a{fill-rule:evenodd;}</style></defs><path class="a" d="M21.542,9A12.542,12.542,0,1,0,34.083,21.542,12.541,12.541,0,0,0,21.542,9ZM17.361,21.542a4.181,4.181,0,1,0,4.181-4.181A4.18,4.18,0,0,0,17.361,21.542Z" transform="translate(24.444 24.444)"/><path class="b" d="M5,34.264A29.264,29.264,0,0,1,34.264,5v8.361a20.9,20.9,0,0,0-20.9,20.9Z" transform="translate(11.722 11.722)"/><path class="b" d="M12,32.9A20.9,20.9,0,0,0,32.9,12h8.361A29.264,29.264,0,0,1,12,41.264Z" transform="translate(33.986 33.986)"/><path class="a" d="M46.986,1A45.986,45.986,0,1,0,92.972,46.986,45.986,45.986,0,0,0,46.986,1ZM9.361,46.986A37.625,37.625,0,1,0,46.986,9.361,37.625,37.625,0,0,0,9.361,46.986Z" transform="translate(-1 -1)"/></svg>