<svg xmlns="http://www.w3.org/2000/svg" width="87" height="87" viewBox="0 0 87 87"><defs><style>.a{fill:none;stroke:#efb31c;stroke-linecap:round;stroke-linejoin:round;stroke-width:6px;}</style></defs><g transform="translate(3 3)"><path class="a" d="M13.364,6H57.545a7.364,7.364,0,0,1,7.364,7.364V57.545a7.364,7.364,0,0,1-7.364,7.364H13.364A7.364,7.364,0,0,1,6,57.545V13.364A7.364,7.364,0,0,1,13.364,6Z" transform="translate(5.045 5.045)"/><path class="a" d="M13.5,13.5H35.591V35.591H13.5Z" transform="translate(15.955 15.955)"/><path class="a" d="M13.5,1.5V12.545" transform="translate(15.955 -1.5)"/><path class="a" d="M22.5,1.5V12.545" transform="translate(29.045 -1.5)"/><path class="a" d="M13.5,30V41.045" transform="translate(15.955 39.955)"/><path class="a" d="M22.5,30V41.045" transform="translate(29.045 39.955)"/><path class="a" d="M30,13.5H41.045" transform="translate(39.955 15.955)"/><path class="a" d="M30,21H41.045" transform="translate(39.955 26.864)"/><path class="a" d="M1.5,13.5H12.545" transform="translate(-1.5 15.955)"/><path class="a" d="M1.5,21H12.545" transform="translate(-1.5 26.864)"/></g></svg>