<svg xmlns="http://www.w3.org/2000/svg" width="108.295" height="81.222" viewBox="0 0 108.295 81.222"><defs><style>.a,.b{fill:#e76e25;}.b{fill-rule:evenodd;}</style></defs><path class="a" d="M12.025,7.512A4.512,4.512,0,1,1,7.512,3,4.512,4.512,0,0,1,12.025,7.512Z" transform="translate(10.537 -3)"/><path class="a" d="M16.025,7.512A4.512,4.512,0,1,1,11.512,3,4.512,4.512,0,0,1,16.025,7.512Z" transform="translate(24.586 -3)"/><path class="a" d="M15.512,12.025A4.512,4.512,0,1,0,11,7.512,4.512,4.512,0,0,0,15.512,12.025Z" transform="translate(38.635 -3)"/><path class="a" d="M24.025,7.512A4.512,4.512,0,1,1,19.512,3,4.512,4.512,0,0,1,24.025,7.512Z" transform="translate(52.685 -3)"/><path class="a" d="M23.512,12.025A4.512,4.512,0,1,0,19,7.512,4.512,4.512,0,0,0,23.512,12.025Z" transform="translate(66.734 -3)"/><path class="a" d="M12.025,23.512A4.512,4.512,0,1,1,7.512,19,4.512,4.512,0,0,1,12.025,23.512Z" transform="translate(10.537 53.197)"/><path class="a" d="M16.025,23.512A4.512,4.512,0,1,1,11.512,19,4.512,4.512,0,0,1,16.025,23.512Z" transform="translate(24.586 53.197)"/><path class="a" d="M15.512,28.025A4.512,4.512,0,1,0,11,23.512,4.512,4.512,0,0,0,15.512,28.025Z" transform="translate(38.635 53.197)"/><path class="a" d="M24.025,23.512A4.512,4.512,0,1,1,19.512,19,4.512,4.512,0,0,1,24.025,23.512Z" transform="translate(52.685 53.197)"/><path class="a" d="M23.512,28.025A4.512,4.512,0,1,0,19,23.512,4.512,4.512,0,0,0,23.512,28.025Z" transform="translate(66.734 53.197)"/><path class="a" d="M8.512,19.025A4.512,4.512,0,1,0,4,14.512,4.512,4.512,0,0,0,8.512,19.025Z" transform="translate(14.049 21.586)"/><path class="a" d="M27.025,16.512A4.512,4.512,0,1,1,22.512,12,4.512,4.512,0,0,1,27.025,16.512Z" transform="translate(63.222 28.611)"/><path class="b" d="M0,19.537A13.537,13.537,0,0,1,13.537,6H94.758A13.537,13.537,0,0,1,108.3,19.537V46.611A13.537,13.537,0,0,1,94.758,60.148H13.537A13.537,13.537,0,0,1,0,46.611Zm13.537-4.512H94.758a4.512,4.512,0,0,1,4.512,4.512V46.611a4.512,4.512,0,0,1-4.512,4.512H13.537a4.512,4.512,0,0,1-4.512-4.512V19.537A4.512,4.512,0,0,1,13.537,15.025Z" transform="translate(0 7.537)"/></svg>